<svg xmlns="http://www.w3.org/2000/svg" xmlns:xlink="http://www.w3.org/1999/xlink" viewBox="0 0 189.49 48.63"><defs><style>.cls-1{fill:none;}.cls-2{clip-path:url(#clip-path);}.cls-3{fill:#4d4d4f;}.cls-4{fill:#797a7d;}.cls-5{fill:#42b4af;}.cls-6{fill:#fff;}</style><clipPath id="clip-path" transform="translate(-5.62 -4.99)"><rect class="cls-1" width="199.67" height="57.77"/></clipPath></defs><g id="Layer_2" data-name="Layer 2"><g id="Layer_1-2" data-name="Layer 1"><g class="cls-2"><path class="cls-3" d="M192.15,10.18l-2.08,4.53L188,10.18h-3l3.74,7.24V21h2.64V17.42l3.74-7.24Zm-13.72,2.19h1.63a1.53,1.53,0,0,1,1.09.35,1.31,1.31,0,0,1,.36,1,1.33,1.33,0,0,1-.36,1,1.49,1.49,0,0,1-1.09.36h-1.63ZM184.28,21l-2.49-4.28a3.24,3.24,0,0,0,1.79-1.2,3.19,3.19,0,0,0,.61-1.93,3.41,3.41,0,0,0-.45-1.73,3,3,0,0,0-1.35-1.22,4.8,4.8,0,0,0-2.17-.45h-4.43V21h2.64V16.91h.63L181.31,21Zm-16.45-3.94,1.32-4,1.34,4Zm4,3.94h2.79L170.7,10.18h-3L163.73,21h2.76l.65-1.91h4ZM157,12.37h1.63a1.52,1.52,0,0,1,1.09.35,1.31,1.31,0,0,1,.36,1,1.33,1.33,0,0,1-.36,1,1.48,1.48,0,0,1-1.09.36H157ZM162.89,21l-2.5-4.28a3.24,3.24,0,0,0,1.79-1.2,3.19,3.19,0,0,0,.61-1.93,3.5,3.5,0,0,0-.44-1.73A3.09,3.09,0,0,0,161,10.63a4.84,4.84,0,0,0-2.18-.45H154.4V21H157V16.91h.63L159.91,21ZM147.4,18.7a2.66,2.66,0,0,1-2.08-.86,3.25,3.25,0,0,1-.78-2.28,3.27,3.27,0,0,1,.78-2.3,3,3,0,0,1,4.16,0,3.3,3.3,0,0,1,.77,2.29,3.33,3.33,0,0,1-.77,2.28,2.68,2.68,0,0,1-2.08.86m0,2.4a5.52,5.52,0,0,0,2.79-.71,5.21,5.21,0,0,0,2-2,5.48,5.48,0,0,0,.74-2.85,5.55,5.55,0,0,0-.73-2.85,5.12,5.12,0,0,0-2-2,5.86,5.86,0,0,0-5.59,0,5.24,5.24,0,0,0-2,2,5.46,5.46,0,0,0-.75,2.85,5.49,5.49,0,0,0,.75,2.85,5.26,5.26,0,0,0,2,2,5.54,5.54,0,0,0,2.79.71M136.74,15h-1.43V12.31h1.43a1.56,1.56,0,0,1,1.13.35,1.35,1.35,0,0,1,.37,1,1.34,1.34,0,0,1-.37,1,1.56,1.56,0,0,1-1.13.36m4.18-1.36a3.54,3.54,0,0,0-.45-1.8,3.09,3.09,0,0,0-1.34-1.23,4.8,4.8,0,0,0-2.19-.45h-4.26V21h2.63V17.11h1.63a4.74,4.74,0,0,0,2.22-.47,3.19,3.19,0,0,0,1.33-1.26,3.57,3.57,0,0,0,.43-1.72m-13.23-3.48-3,7.49-3-7.49h-3.11V21h2.63v-6.5L123.6,21h2.13l2.42-6.48V21h2.63V10.18Zm-10.86,2.11V10.18H110.2V21h6.63V18.88h-4V16.51h3.52v-2h-3.52V12.29Zm-16.32-2.11v2.11h2.87V21H106v-8.7h2.87V10.18Zm-1.32,0H96.55v6.7l-4.4-6.7H89.51V21h2.64V14.32L96.55,21h2.64ZM82.83,18.7a2.68,2.68,0,0,1-2.09-.86A3.25,3.25,0,0,1,80,15.56a3.27,3.27,0,0,1,.78-2.3,2.71,2.71,0,0,1,2.09-.85,2.67,2.67,0,0,1,2.07.86,3.26,3.26,0,0,1,.78,2.29,3.29,3.29,0,0,1-.78,2.28,2.67,2.67,0,0,1-2.07.86m0,2.4a5.57,5.57,0,0,0,2.79-.71,5.21,5.21,0,0,0,2-2,5.58,5.58,0,0,0,.74-2.85,5.65,5.65,0,0,0-.73-2.85,5.14,5.14,0,0,0-2-2,5.86,5.86,0,0,0-5.59,0,5.24,5.24,0,0,0-2,2,5.86,5.86,0,0,0,0,5.7,5.26,5.26,0,0,0,2,2,5.58,5.58,0,0,0,2.8.71m-17.3-5.53a5.78,5.78,0,0,0,.69,2.85,5,5,0,0,0,1.94,1.95,5.56,5.56,0,0,0,2.81.7,5.34,5.34,0,0,0,3.29-1A4.82,4.82,0,0,0,76.1,17.3H73.2a2.37,2.37,0,0,1-.92,1,2.51,2.51,0,0,1-1.34.35,2.54,2.54,0,0,1-2-.84,3.31,3.31,0,0,1-.75-2.27A3.28,3.28,0,0,1,69,13.31a2.52,2.52,0,0,1,2-.85,2.6,2.6,0,0,1,1.34.35,2.4,2.4,0,0,1,.92,1h2.9a4.9,4.9,0,0,0-1.84-2.78,5.41,5.41,0,0,0-3.29-1,5.56,5.56,0,0,0-2.81.7,5,5,0,0,0-1.94,2,5.85,5.85,0,0,0-.69,2.86" transform="translate(-5.62 -4.99)"/><path class="cls-3" d="M151.93,28.76H150.5V26.05h1.43a1.56,1.56,0,0,1,1.13.35,1.35,1.35,0,0,1,.37,1,1.34,1.34,0,0,1-.37,1,1.56,1.56,0,0,1-1.13.36m4.18-1.36a3.54,3.54,0,0,0-.45-1.8,3.09,3.09,0,0,0-1.34-1.23,4.83,4.83,0,0,0-2.19-.45h-4.26V34.73h2.63V30.85h1.63a4.77,4.77,0,0,0,2.22-.47,3.19,3.19,0,0,0,1.33-1.26,3.57,3.57,0,0,0,.43-1.72m-12.79,7.33H146V23.92h-2.63Zm-4.53-10.81v4.24h-4.1V23.92h-2.63V34.73h2.63V30.28h4.1v4.45h2.64V23.92ZM126.5,34.84a4.79,4.79,0,0,0,2.11-.44A3.22,3.22,0,0,0,130,33.19a3,3,0,0,0,.47-1.68,2.56,2.56,0,0,0-.47-1.58,3.2,3.2,0,0,0-1.14-.94,13.54,13.54,0,0,0-1.7-.68,8,8,0,0,1-1.54-.63.91.91,0,0,1-.49-.82.93.93,0,0,1,.29-.73,1.13,1.13,0,0,1,.77-.25,1.37,1.37,0,0,1,.91.3,1.08,1.08,0,0,1,.38.82h2.85a3,3,0,0,0-1.17-2.38,4.55,4.55,0,0,0-2.88-.85,4.5,4.5,0,0,0-2.85.85A2.83,2.83,0,0,0,122.31,27a2.64,2.64,0,0,0,.48,1.64,3.07,3.07,0,0,0,1.14,1,12,12,0,0,0,1.71.65,10.5,10.5,0,0,1,1.11.38,2.15,2.15,0,0,1,.67.43.9.9,0,0,1,.27.67.92.92,0,0,1-.34.74,1.47,1.47,0,0,1-.93.27,1.31,1.31,0,0,1-.92-.31,1.35,1.35,0,0,1-.42-.92h-2.8a3.16,3.16,0,0,0,.59,1.82,3.58,3.58,0,0,0,1.5,1.14,5.73,5.73,0,0,0,2.13.38m-11.32-8.73h1.63a1.55,1.55,0,0,1,1.09.35,1.31,1.31,0,0,1,.36,1,1.33,1.33,0,0,1-.36,1,1.51,1.51,0,0,1-1.09.36h-1.63ZM121,34.73l-2.49-4.28a3.22,3.22,0,0,0,1.79-1.2,3.18,3.18,0,0,0,.61-1.92,3.42,3.42,0,0,0-.45-1.74,3.09,3.09,0,0,0-1.35-1.22,4.81,4.81,0,0,0-2.18-.45h-4.42V34.73h2.64V30.65h.63l2.25,4.08ZM110.83,26V23.92h-6.62V34.73h6.62V32.62h-4V30.25h3.53v-2h-3.53V26ZM96.89,32.45H95.64V26.17h1.25a2.88,2.88,0,0,1,3.16,3.16,3.13,3.13,0,0,1-.83,2.31,3.21,3.21,0,0,1-2.33.81m.17-8.53H93V34.73h4a6.32,6.32,0,0,0,3-.67,4.89,4.89,0,0,0,2-1.91,6.05,6.05,0,0,0,0-5.65,4.83,4.83,0,0,0-2-1.9,6.31,6.31,0,0,0-3-.68m-12,6.87,1.32-4,1.34,4Zm4,3.94h2.78L87.91,23.92h-3L81,34.73h2.76l.64-1.91h4ZM80,26V23.92H73.32V34.73H80V32.62H76V30.25h3.52v-2H76V26ZM68.61,23.92H66V34.73h6.08v-2H68.61Z" transform="translate(-5.62 -4.99)"/><path class="cls-4" d="M136.68,48.61a4.25,4.25,0,0,0,2-.44A3.15,3.15,0,0,0,139.94,47a3,3,0,0,0,.44-1.54,2.63,2.63,0,0,0-.47-1.63,2.93,2.93,0,0,0-1.14-.9,13.85,13.85,0,0,0-1.73-.58,11.32,11.32,0,0,1-1.27-.41,2.06,2.06,0,0,1-.76-.5,1.12,1.12,0,0,1-.3-.8,1.32,1.32,0,0,1,.48-1.11,1.89,1.89,0,0,1,1.23-.39,2,2,0,0,1,1.34.42,1.38,1.38,0,0,1,.55,1h1.95a2.88,2.88,0,0,0-1.11-2.14,4.05,4.05,0,0,0-2.55-.77,4.63,4.63,0,0,0-1.92.37,2.84,2.84,0,0,0-1.76,2.68,2.56,2.56,0,0,0,.47,1.6,2.77,2.77,0,0,0,1.11.88,13.37,13.37,0,0,0,1.7.57,10.18,10.18,0,0,1,1.31.4,2.14,2.14,0,0,1,.78.52,1.25,1.25,0,0,1,.32.88,1.42,1.42,0,0,1-.51,1.13,2.12,2.12,0,0,1-1.42.44,1.92,1.92,0,0,1-1.36-.45,1.68,1.68,0,0,1-.55-1.14h-1.88a2.71,2.71,0,0,0,.5,1.62,3.15,3.15,0,0,0,1.35,1.07,4.83,4.83,0,0,0,1.94.38m-11.51-9.38h2a2.07,2.07,0,0,1,1.49.47,1.69,1.69,0,0,1,.49,1.3,1.73,1.73,0,0,1-.5,1.32,2,2,0,0,1-1.48.5h-2Zm5.9,9.27-2.64-4.44a3.08,3.08,0,0,0,1.87-1.16,3.23,3.23,0,0,0,.61-1.9,3.16,3.16,0,0,0-.43-1.62,2.94,2.94,0,0,0-1.28-1.15,4.54,4.54,0,0,0-2.08-.43h-3.7V48.5h1.75V44.22h1.35L129,48.5Zm-14.85-1.42a3.71,3.71,0,0,1-1.89-.48,3.36,3.36,0,0,1-1.3-1.39,4.34,4.34,0,0,1-.47-2.08,4.29,4.29,0,0,1,.47-2.08,3.34,3.34,0,0,1,1.3-1.38,4.06,4.06,0,0,1,3.79,0,3.34,3.34,0,0,1,1.3,1.38,4.4,4.4,0,0,1,.47,2.08,4.46,4.46,0,0,1-.47,2.08,3.36,3.36,0,0,1-1.3,1.39,3.73,3.73,0,0,1-1.9.48m0,1.53a5.56,5.56,0,0,0,2.77-.7,5.11,5.11,0,0,0,2-2,5.88,5.88,0,0,0,0-5.64,5,5,0,0,0-2-2,5.56,5.56,0,0,0-2.77-.7,5.48,5.48,0,0,0-2.74.7,5.11,5.11,0,0,0-2,2,5.81,5.81,0,0,0,0,5.64,5.2,5.2,0,0,0,2,2,5.48,5.48,0,0,0,2.74.7m-10.66,0a4.25,4.25,0,0,0,2-.44A3.15,3.15,0,0,0,108.82,47a2.89,2.89,0,0,0,.44-1.54,2.57,2.57,0,0,0-.47-1.63,2.93,2.93,0,0,0-1.14-.9,12.8,12.8,0,0,0-1.73-.58,11.05,11.05,0,0,1-1.26-.41,2.1,2.1,0,0,1-.77-.5,1.12,1.12,0,0,1-.3-.8,1.32,1.32,0,0,1,.48-1.11,1.89,1.89,0,0,1,1.23-.39,2,2,0,0,1,1.34.42,1.39,1.39,0,0,1,.56,1h1.94a2.88,2.88,0,0,0-1.1-2.14,4.07,4.07,0,0,0-2.55-.77,4.68,4.68,0,0,0-1.93.37,2.94,2.94,0,0,0-1.29,1.06,2.83,2.83,0,0,0-.46,1.62,2.55,2.55,0,0,0,.46,1.6,2.8,2.8,0,0,0,1.12.88,12.36,12.36,0,0,0,1.7.57,10,10,0,0,1,1.3.4,2.14,2.14,0,0,1,.78.52,1.21,1.21,0,0,1,.32.88,1.42,1.42,0,0,1-.51,1.13,2.12,2.12,0,0,1-1.42.44,1.94,1.94,0,0,1-1.36-.45,1.72,1.72,0,0,1-.55-1.14h-1.87a2.7,2.7,0,0,0,.49,1.62,3.21,3.21,0,0,0,1.35,1.07,4.87,4.87,0,0,0,1.94.38M98,48.5h1.76V37.8H98ZM94.66,37.8l-3.19,8.9L88.3,37.8H86.42l4,10.7h2l4-10.7ZM80.41,47.07H78.67V39.23h1.74a3.8,3.8,0,0,1,2.88,1.05,4,4,0,0,1,1,2.91,3.52,3.52,0,0,1-3.88,3.88m0-9.27h-3.5V48.5h3.5a6.63,6.63,0,0,0,3-.64,4.58,4.58,0,0,0,2-1.84,5.48,5.48,0,0,0,.7-2.83,5.64,5.64,0,0,0-.7-2.86,4.67,4.67,0,0,0-2-1.88,6.5,6.5,0,0,0-3-.65M68.64,44.88l1.76-5,1.74,5ZM73.4,48.5h1.85L71.41,37.78h-2L65.54,48.5h1.84l.77-2.19h4.48Z" transform="translate(-5.62 -4.99)"/><path class="cls-5" d="M8.83,5A3.14,3.14,0,0,0,5.62,8.2V50.4a3.14,3.14,0,0,0,3.21,3.21H54.32a3.15,3.15,0,0,0,3.22-3.21V8.2A3.15,3.15,0,0,0,54.32,5Z" transform="translate(-5.62 -4.99)"/><rect class="cls-6" x="12.96" y="9.35" width="25.88" height="8.02"/><rect class="cls-6" x="12.96" y="31.23" width="25.88" height="8.02"/><rect class="cls-6" x="12.96" y="13.37" width="8.02" height="25.89"/><rect class="cls-6" x="30.82" y="17.29" width="8.02" height="7.08"/></g></g></g></svg>